<svg width="506" height="597" viewBox="0 0 506 597" fill="none" xmlns="http://www.w3.org/2000/svg">
<rect width="506" height="597" fill="#E5E5E5"/>
<g id="confirmation">
<g id="phone">
<path id="Vector" d="M19 106.813H21.4697V39.1572C21.4697 34.015 22.4825 28.9232 24.4503 24.1724C26.4181 19.4217 29.3024 15.105 32.9385 11.4689C36.5746 7.83282 40.8912 4.94852 45.642 2.98068C50.3928 1.01284 55.4846 3.93973e-06 60.6268 0H203.964C209.107 -1.05057e-05 214.198 1.01281 218.949 2.98064C223.7 4.94846 228.017 7.83275 231.653 11.4688C235.289 15.1049 238.173 19.4215 240.141 24.1723C242.109 28.9231 243.122 34.0149 243.122 39.1571V410.321C243.122 415.463 242.109 420.555 240.141 425.306C238.173 430.056 235.289 434.373 231.653 438.009C228.017 441.645 223.7 444.53 218.949 446.497C214.198 448.465 209.107 449.478 203.964 449.478H60.627C50.2419 449.478 40.2821 445.353 32.9387 438.009C25.5952 430.666 21.4697 420.706 21.4697 410.321V154.971H19V106.813Z" fill="#3F3D56"/>
<path id="Vector_2" d="M59.047 10.1873H77.7572C76.8968 12.2969 76.5684 14.5856 76.8008 16.8519C77.0333 19.1183 77.8196 21.2927 79.0904 23.1836C80.3611 25.0745 82.0774 26.6239 84.088 27.6952C86.0987 28.7666 88.3419 29.327 90.6201 29.3272H172.736C175.015 29.327 177.258 28.7666 179.268 27.6952C181.279 26.6239 182.995 25.0745 184.266 23.1836C185.537 21.2927 186.323 19.1183 186.556 16.8519C186.788 14.5856 186.46 12.2968 185.599 10.1873H203.075C210.83 10.1873 218.268 13.2682 223.752 18.7521C229.236 24.2361 232.317 31.6739 232.317 39.4294V410.049C232.317 413.889 231.561 417.691 230.091 421.239C228.621 424.787 226.467 428.011 223.752 430.726C221.037 433.441 217.813 435.595 214.265 437.065C210.717 438.534 206.915 439.291 203.075 439.291H59.047C55.2068 439.291 51.4043 438.534 47.8565 437.065C44.3087 435.595 41.085 433.441 38.3696 430.726C35.6542 428.011 33.5003 424.787 32.0307 421.239C30.5611 417.691 29.8048 413.889 29.8048 410.049V410.049V39.4295C29.8048 35.5893 30.5611 31.7868 32.0307 28.239C33.5003 24.6912 35.6542 21.4675 38.3696 18.7522C41.085 16.0368 44.3087 13.8828 47.8565 12.4133C51.4043 10.9437 55.2068 10.1873 59.047 10.1873Z" fill="url(#paint0_linear)"/>
<path id="Vector_3" d="M164.857 124.901V110.009H131.061H97.265V124.901H131.061H164.857Z" fill="#E5E5E5"/>
<path id="Vector_4" d="M206.858 152H56V166.892H206.858V152Z" fill="#E5E5E5"/>
<path id="Vector_5" d="M206.49 183.99H55.6318V198.883H206.49V183.99Z" fill="#E5E5E5"/>
</g>
<path id="ConfirmWrapper" d="M133.471 384.405C157.346 384.405 176.701 365.051 176.701 341.175C176.701 317.3 157.346 297.945 133.471 297.945C109.596 297.945 90.2408 317.3 90.2408 341.175C90.2408 365.051 109.596 384.405 133.471 384.405Z" fill="black" fill-opacity="0.66"/>
<g id="confirmsign">
<path id="ConfirmSign" d="M127.351 360.424L114.413 343.787L121.937 337.935L128.063 345.812L148.76 323.964L155.681 330.521L127.351 360.424Z" fill="white"/>
</g>
</g>
<defs>
<linearGradient id="paint0_linear" x1="227.666" y1="41" x2="33.6664" y2="435" gradientUnits="userSpaceOnUse">
<stop stop-color="#A3BDED"/>
<stop offset="1" stop-color="#6991C7" stop-opacity="0.53"/>
</linearGradient>
</defs>
</svg>
