<svg width="506" height="597" viewBox="0 0 506 597" fill="none" xmlns="http://www.w3.org/2000/svg">
<rect width="506" height="597" fill="#E5E5E5"/>
<g id="confirmation">
<g id="phone">
<path id="Vector" d="M141 179.813H143.47V112.157C143.47 107.015 144.482 101.923 146.45 97.1724C148.418 92.4217 151.302 88.105 154.939 84.4689C158.575 80.8328 162.891 77.9485 167.642 75.9807C172.393 74.0128 177.485 73 182.627 73H325.964C331.107 73 336.198 74.0128 340.949 75.9806C345.7 77.9485 350.017 80.8328 353.653 84.4688C357.289 88.1049 360.173 92.4215 362.141 97.1723C364.109 101.923 365.122 107.015 365.122 112.157V483.321C365.122 488.463 364.109 493.555 362.141 498.306C360.173 503.056 357.289 507.373 353.653 511.009C350.017 514.645 345.7 517.53 340.949 519.497C336.198 521.465 331.107 522.478 325.964 522.478H182.627C172.242 522.478 162.282 518.353 154.939 511.009C147.595 503.666 143.47 493.706 143.47 483.321V227.971H141V179.813Z" fill="#3F3D56"/>
<path id="Vector_2" d="M181.047 83.1873H199.757C198.897 85.2969 198.568 87.5856 198.801 89.8519C199.033 92.1183 199.82 94.2927 201.09 96.1836C202.361 98.0745 204.077 99.6239 206.088 100.695C208.099 101.767 210.342 102.327 212.62 102.327H294.736C297.015 102.327 299.258 101.767 301.268 100.695C303.279 99.6239 304.995 98.0745 306.266 96.1836C307.537 94.2927 308.323 92.1183 308.556 89.8519C308.788 87.5856 308.46 85.2968 307.599 83.1873H325.075C332.83 83.1873 340.268 86.2682 345.752 91.7521C351.236 97.2361 354.317 104.674 354.317 112.429V483.049C354.317 486.889 353.561 490.691 352.091 494.239C350.621 497.787 348.467 501.011 345.752 503.726C343.037 506.441 339.813 508.595 336.265 510.065C332.717 511.534 328.915 512.291 325.075 512.291H181.047C177.207 512.291 173.404 511.534 169.856 510.065C166.309 508.595 163.085 506.441 160.37 503.726C157.654 501.011 155.5 497.787 154.031 494.239C152.561 490.691 151.805 486.889 151.805 483.049V483.049V112.429C151.805 108.589 152.561 104.787 154.031 101.239C155.5 97.6912 157.654 94.4675 160.37 91.7522C163.085 89.0368 166.309 86.8828 169.856 85.4133C173.404 83.9437 177.207 83.1873 181.047 83.1873Z" fill="url(#paint0_linear)"/>
<path id="Vector_3" d="M286.857 197.901V183.009H253.061H219.265V197.901H253.061H286.857Z" fill="#E5E5E5"/>
<path id="Vector_4" d="M328.858 225H178V239.892H328.858V225Z" fill="#E5E5E5"/>
<path id="Vector_5" d="M328.49 256.99H177.632V271.883H328.49V256.99Z" fill="#E5E5E5"/>
</g>
<path id="ConfirmWrapper" d="M253.23 479.46C277.105 479.46 296.46 460.105 296.46 436.23C296.46 412.355 277.105 393 253.23 393C229.355 393 210 412.355 210 436.23C210 460.105 229.355 479.46 253.23 479.46Z" fill="black" fill-opacity="0.66"/>
<g id="confirmsign">
<path id="ConfirmSign" d="M244.938 454.46L232 437.823L239.524 431.971L245.65 439.848L266.347 418L273.268 424.557L244.938 454.46Z" fill="white"/>
</g>
</g>
<defs>
<linearGradient id="paint0_linear" x1="349.666" y1="114" x2="155.666" y2="508" gradientUnits="userSpaceOnUse">
<stop stop-color="#A3BDED"/>
<stop offset="1" stop-color="#6991C7" stop-opacity="0.53"/>
</linearGradient>
</defs>
</svg>
