<svg width="148" height="356" viewBox="0 0 148 356" fill="none" xmlns="http://www.w3.org/2000/svg">
<g id="Gerald-G-Ice-Cream-Cones-FF-Menu-2 1" clip-path="url(#clip0)">
<g id="Layer_1">
<g id="Entire Ice Cream">
<g id="Cone">
<path id="Vector" fill-rule="evenodd" clip-rule="evenodd" d="M22.337 224.71C21.365 226.616 20.969 228.489 21.545 230.325C21.941 232.161 23.309 233.962 25.253 235.725L27.917 264.813C26.981 265.856 26.477 266.864 26.261 267.692C26.045 268.485 25.757 268.737 26.765 269.852C27.773 270.86 30.293 272.913 32.093 273.92C33.749 274.856 35.513 275.324 37.097 275.469C39.005 276.908 40.265 279.213 41.309 282.813C42.209 286.268 41.957 289.581 42.785 296.493C43.469 303.44 44.837 316.868 45.917 323.852C46.961 330.657 48.041 335.012 49.157 337.209C48.293 340.232 48.257 342.752 49.049 345.164C49.733 347.432 50.093 349.484 53.729 351.176C57.365 352.905 64.925 354.885 70.865 355.461C76.733 355.928 84.005 354.848 88.649 354.164C93.185 353.301 96.065 353.191 98.117 350.779C100.097 348.332 100.817 344.695 100.421 339.728C101.033 335.767 101.501 332.527 101.97 329.863C102.366 327.199 102.545 327.595 102.942 323.672C103.194 319.531 103.338 311.721 103.95 305.637C104.49 299.444 105.894 291.741 106.758 287.241C107.55 282.704 108.019 280.798 108.99 278.745C109.854 276.657 110.358 276.116 112.446 274.604C114.498 272.948 117.486 271.149 121.41 269.061C121.05 266.864 120.87 264.129 120.726 260.456C120.545 256.677 120.402 251.349 120.581 247.245C120.617 243.032 120.977 239.505 121.373 235.977C122.633 235.256 123.533 234.248 124.217 232.952C124.865 231.585 125.297 229.966 125.369 227.948C91.034 226.858 56.69 225.778 22.349 224.698L22.337 224.71Z" fill="black" stroke="black" stroke-width="0.036" stroke-miterlimit="10"/>
<path id="Vector_2" fill-rule="evenodd" clip-rule="evenodd" d="M117.41 237.67C109.274 241.449 100.058 243.899 89.33 244.869C78.494 245.734 63.482 244.799 53.186 243.43C42.854 242.026 34.574 239.83 27.914 236.698C25.97 234.43 24.638 232.487 24.062 230.723C23.45 228.922 23.45 227.373 24.206 226.078C23.954 227.41 26.69 228.742 32.414 230.613C38.174 232.306 48.254 235.547 58.478 236.59C68.63 237.598 81.806 237.742 92.749 236.627C103.585 235.365 113.594 233.135 123.169 229.533C123.493 230.578 123.241 231.838 122.27 233.17C121.27 234.48 119.65 236.03 117.41 237.65V237.67Z" fill="#FBDF99" stroke="black" stroke-width="0.036" stroke-miterlimit="10"/>
<path id="Vector_3" fill-rule="evenodd" clip-rule="evenodd" d="M27.629 239.22L29.465 265.572C33.893 268.236 41.237 270.252 52.037 271.224C62.873 272.052 82.205 272.339 93.653 271.691C104.993 271.115 113.417 269.855 119.501 267.912C119.033 262.98 118.745 258.228 118.638 253.512C118.53 248.76 118.457 244.08 118.709 239.473C113.381 242.389 106.865 244.549 98.873 245.809C90.81 246.997 80.262 247.5 70.973 247.176C61.505 246.817 50.597 245.16 43.253 243.863C35.98 242.493 30.868 240.943 27.628 239.213L27.629 239.22Z" fill="#FBDF99" stroke="black" stroke-width="0.036" stroke-miterlimit="10"/>
<path id="Vector_4" fill-rule="evenodd" clip-rule="evenodd" d="M112.3 272.95C109.708 275.038 103.876 276.335 94.265 276.983C84.473 277.594 65.069 277.342 54.952 276.766C44.836 276.082 38.428 274.319 34.072 273.131C29.752 271.834 29.32 270.322 28.744 269.422C27.988 268.414 27.16 267.406 30.148 267.91C33.172 268.414 38.824 271.258 46.528 272.41C54.232 273.346 67.192 273.777 75.688 273.994C83.932 274.101 89.728 273.994 96.136 273.525C102.508 273.021 108.268 272.302 113.703 271.222C113.243 271.812 112.773 272.392 112.303 272.962L112.3 272.95Z" fill="#FBDF99" stroke="black" stroke-width="0.036" stroke-miterlimit="10"/>
<path id="Vector_5" fill-rule="evenodd" clip-rule="evenodd" d="M41.921 276.77C43.037 278.354 44.117 281.774 45.017 287.571C45.773 293.331 46.457 302.223 47.357 310.79C48.293 319.216 49.517 328.071 50.885 337.79C53.765 340.706 57.905 342.579 63.305 343.694C68.669 344.702 77.094 344.954 83.141 344.163C89.08 343.227 94.409 341.392 99.124 338.511C99.305 334.552 99.809 329.404 100.24 322.779C100.708 316.047 101.356 305.14 102.04 299.091C102.652 293.042 103.048 290.343 104.057 286.706C105.029 282.927 106.145 279.651 107.693 276.735C102.041 277.887 96.172 278.823 89.693 279.399C83.177 279.866 77.237 280.694 69.245 280.227C61.174 279.767 52.246 278.607 41.914 276.777L41.921 276.77Z" fill="#FBDF99" stroke="black" stroke-width="0.036" stroke-miterlimit="10"/>
<path id="Vector_6" fill-rule="evenodd" clip-rule="evenodd" d="M50.489 281.74L51.713 291.496L61.613 292.252L52.721 290.561L50.489 281.731V281.74Z" fill="black" stroke="black" stroke-width="0.036" stroke-miterlimit="10"/>
<path id="Vector_7" fill-rule="evenodd" clip-rule="evenodd" d="M52.721 296.21L54.629 313.778L64.493 315.507L55.853 312.663L52.721 296.203V296.21Z" fill="black" stroke="black" stroke-width="0.036" stroke-miterlimit="10"/>
<path id="Vector_8" fill-rule="evenodd" clip-rule="evenodd" d="M56.177 319.68L57.149 336.061L64.889 338.077L58.769 334.944L56.177 319.674V319.68Z" fill="black" stroke="black" stroke-width="0.036" stroke-miterlimit="10"/>
<path id="Vector_9" fill-rule="evenodd" clip-rule="evenodd" d="M67.337 283.86L67.625 292.249L73.853 292.466L69.029 291.314L67.301 285.05L67.337 283.85V283.86Z" fill="black" stroke="black" stroke-width="0.036" stroke-miterlimit="10"/>
<path id="Vector_10" fill-rule="evenodd" clip-rule="evenodd" d="M67.697 296.53L68.957 316.042L74.789 316.438L70.361 315.106L67.697 296.526V296.53Z" fill="black" stroke="black" stroke-width="0.036" stroke-miterlimit="10"/>
<path id="Vector_11" fill-rule="evenodd" clip-rule="evenodd" d="M69.173 320.51L69.749 338.078L75.185 338.437L70.937 336.925L69.173 320.505V320.51Z" fill="black" stroke="black" stroke-width="0.036" stroke-miterlimit="10"/>
<path id="Vector_12" fill-rule="evenodd" clip-rule="evenodd" d="M78.461 283.46L78.93 292.243L83.789 292.026L79.937 291.307L78.389 285.043L78.461 283.463V283.46Z" fill="black" stroke="black" stroke-width="0.036" stroke-miterlimit="10"/>
<path id="Vector_13" fill-rule="evenodd" clip-rule="evenodd" d="M78.209 295.92L79.073 316.404L85.877 316.045L80.478 315.072L78.209 295.922V295.92Z" fill="black" stroke="black" stroke-width="0.036" stroke-miterlimit="10"/>
<path id="Vector_14" fill-rule="evenodd" clip-rule="evenodd" d="M78.713 321.05L79.253 338.402L84.545 338.185L80.262 337.466L78.713 321.056V321.05Z" fill="black" stroke="black" stroke-width="0.036" stroke-miterlimit="10"/>
<path id="Vector_15" fill-rule="evenodd" clip-rule="evenodd" d="M89.045 320.26L87.857 337.324L92.177 336.316L89.08 336.207L89.045 320.267V320.26Z" fill="black" stroke="black" stroke-width="0.036" stroke-miterlimit="10"/>
<path id="Vector_16" fill-rule="evenodd" clip-rule="evenodd" d="M88.938 295.7L88.65 315.356L93.546 314.348L89.622 314.6L88.938 295.7V295.7Z" fill="black" stroke="black" stroke-width="0.036" stroke-miterlimit="10"/>
<path id="Vector_17" fill-rule="evenodd" clip-rule="evenodd" d="M89.766 282.89L89.297 291.062L96.533 290.124L90.701 289.944L89.766 282.894V282.89Z" fill="black" stroke="black" stroke-width="0.036" stroke-miterlimit="10"/>
<path id="Vector_18" fill-rule="evenodd" clip-rule="evenodd" d="M98.153 283L98.117 289.623L100.817 289.336L99.305 288.688L98.15 283.008L98.153 283Z" fill="black" stroke="black" stroke-width="0.036" stroke-miterlimit="10"/>
<path id="Vector_19" fill-rule="evenodd" clip-rule="evenodd" d="M97.109 295.99L96.281 313.486L99.629 312.261L97.325 311.974L97.109 295.994V295.99Z" fill="black" stroke="black" stroke-width="0.036" stroke-miterlimit="10"/>
<path id="Vector_20" fill-rule="evenodd" clip-rule="evenodd" d="M95.669 319.9L94.518 336.388L98.694 334.228L95.346 334.874L95.669 319.894V319.9Z" fill="black" stroke="black" stroke-width="0.036" stroke-miterlimit="10"/>
</g>
<g id="Vanilla Ice Cream">
<path id="Vector_21" fill-rule="evenodd" clip-rule="evenodd" d="M32.957 241.52L38.285 236.084C34.793 234.283 31.949 232.232 29.465 229.928C26.945 227.553 26.153 224.203 23.633 222.26C20.933 220.28 15.281 221.828 14.309 218.156C13.373 214.34 15.821 204.008 18.161 199.797C20.465 195.619 24.821 195.764 27.881 192.885C30.833 189.824 30.545 186.188 35.621 181.832C40.517 177.296 46.241 168.332 57.653 166.316C69.101 164.336 92.789 165.848 103.841 169.88C114.749 173.876 119.249 183.633 123.029 189.717C126.701 195.619 127.493 200.805 125.693 205.412C131.381 208.473 135.377 211.244 137.681 214.016C139.912 216.645 138.221 219.057 139.265 221.684C140.237 224.348 142.721 225.788 143.513 229.748C144.197 233.527 145.204 241.699 143.332 244.687C141.244 247.64 137.356 249.404 131.668 247.496C125.836 245.408 118.492 240.476 109.097 232.557C103.229 240.26 98.477 244.94 94.84 247.137C91.168 249.116 90.485 243.897 87.101 245.084C83.5 246.272 78.929 251.672 74.213 254.049C69.353 256.279 63.557 256.531 59.057 258.549C54.521 260.528 50.165 266.287 47.789 265.82C45.413 265.279 44.369 261.679 44.801 255.164C39.185 255.092 35.513 254.156 33.497 251.816C31.514 249.536 31.334 246.146 32.954 241.536L32.957 241.52Z" fill="black" stroke="black" stroke-width="0.036" stroke-miterlimit="10"/>
<path id="Vector_22" fill-rule="evenodd" clip-rule="evenodd" d="M40.193 234.97C37.205 233.386 34.433 231.333 31.733 228.814C28.961 226.222 26.621 221.505 24.173 219.814C21.581 218.013 17.909 220.966 16.757 218.517C15.641 215.962 16.073 208.654 17.477 205.054C18.737 201.525 22.337 199.077 24.533 197.169C26.621 195.009 28.097 195.478 30.329 192.886C32.489 190.15 33.605 185.865 37.565 181.833C41.381 177.729 47.177 171.393 53.405 168.945C59.633 166.569 67.373 166.929 74.393 167.253C81.233 167.397 89.045 168.873 94.518 169.881C99.846 170.745 102.545 170.025 106.65 172.869C110.682 175.749 116.046 182.696 118.998 186.909C121.986 190.977 123.786 193.966 124.11 197.386C124.254 200.806 122.706 204.55 119.862 207.105C116.838 209.41 108.126 211.029 106.65 211.966C105.246 212.902 107.694 213.441 111.078 212.902C114.282 212.181 121.914 208.15 126.055 208.582C130.122 208.978 133.758 213.189 135.559 215.529C137.179 217.799 135.523 219.994 136.279 222.261C136.963 224.314 139.231 226.222 140.167 228.814C141.031 231.478 142.436 235.15 141.896 238.173C141.428 241.054 140.528 246.273 136.963 246.2C133.148 246.02 124.291 240.333 119.539 237.596C114.68 234.787 111.259 232.16 108.596 229.569C102.404 237.272 97.724 242.133 94.159 244.149C90.667 246.02 91.495 240.153 87.607 241.52C83.503 242.924 75.439 249.944 70.363 252.573C65.179 255.057 60.823 254.805 57.295 256.677C53.767 258.478 50.887 263.913 49.195 263.409C47.323 262.761 46.531 259.52 46.531 253.294C41.815 253.364 38.503 252.788 36.307 251.421C34.003 249.982 32.887 247.821 33.499 245.085C34.132 242.275 36.363 239.035 40.179 234.965L40.193 234.97Z" fill="#EDD4A8" stroke="black" stroke-width="0.036" stroke-miterlimit="10"/>
<path id="Vector_23" fill-rule="evenodd" clip-rule="evenodd" d="M26.621 211.61C29.357 214.958 35.225 222.95 40.193 226.551C44.981 230.114 46.781 234.506 55.709 232.922C64.709 231.086 86.417 221.078 93.617 216.651C100.565 212.186 100.565 206.102 97.649 206.751C94.625 207.399 83.609 217.659 75.977 220.575C68.129 223.346 60.389 226.118 51.641 223.743C42.893 221.151 28.169 208.3 23.993 206.175C19.889 204.195 23.777 208.045 26.621 211.615V211.61Z" fill="#DEC599"/>
<path id="Vector_24" fill-rule="evenodd" clip-rule="evenodd" d="M52.361 248.83C54.593 246.777 61.361 244.295 64.349 243.754C67.229 243.143 66.437 247.102 70.181 245.086C73.853 242.891 83.393 233.135 86.561 231.227C89.621 229.319 86.021 234.215 88.685 233.854C91.349 233.458 102.581 228.274 102.256 228.995C101.752 229.679 91.817 234.034 86.2 237.778C80.512 241.38 73.024 248.651 68.74 250.702C64.348 252.575 63.34 248.723 60.28 249.552C57.184 250.45 51.676 255.706 50.416 255.743C49.081 255.543 49.909 250.793 52.357 248.843L52.361 248.83Z" fill="#DEC599"/>
<path id="Vector_25" fill-rule="evenodd" clip-rule="evenodd" d="M103.3 199.98C105.244 196.703 111.653 190.728 114.748 190.259C117.628 189.827 119.896 194.472 120.58 196.991C121.156 199.403 120.652 202.464 117.952 204.659C114.964 206.747 106.181 210.022 103.66 209.339C101.25 208.479 101.36 203.179 103.3 199.979V199.98Z" fill="#DEC599"/>
</g>
<g id="Strawberry Ice Cream">
<path id="Vector_26" fill-rule="evenodd" clip-rule="evenodd" d="M64.457 198.83C58.985 195.482 54.053 193.502 49.121 192.891C44.189 192.35 40.013 195.842 35.225 195.014C30.293 194.006 25.361 191.883 20.033 186.842C14.525 181.658 2.681 169.31 3.113 164.234C3.581 159.122 10.133 156.35 22.913 156.062C18.305 150.446 18.089 144.506 22.265 137.702C26.441 130.79 35.045 119.198 47.681 115.706C60.281 112.358 84.329 113.978 97.037 117.254C109.529 120.422 116.801 129.206 122.598 134.462C128.322 139.646 131.202 144.11 131.381 148.142C135.81 147.17 138.69 147.602 140.022 149.294C141.354 150.986 140.994 153.938 139.23 158.294C146.25 162.11 148.41 166.826 146.25 172.73C143.874 178.598 137.179 185.365 125.622 193.322C121.59 191.234 116.478 190.299 109.998 190.369C103.446 190.406 92.718 192.457 86.958 193.754C81.27 194.979 79.435 196.887 75.763 197.822C71.907 198.672 68.271 198.962 64.455 198.822L64.457 198.83Z" fill="black" stroke="black" stroke-width="0.036" stroke-miterlimit="10"/>
<path id="Vector_27" fill-rule="evenodd" clip-rule="evenodd" d="M26.081 157.32C22.913 156.78 19.673 156.924 16.505 157.752C13.085 158.472 8.369 160.2 6.785 162.108C5.237 163.908 4.481 164.412 7.577 168.912C10.709 173.412 19.529 184.859 25.145 188.82C30.581 192.636 35.729 191.447 40.013 191.916C44.117 192.203 45.665 190.297 49.913 191.195C54.125 192.023 60.713 196.595 65.393 197.279C69.857 197.783 72.881 196.236 77.381 195.011C81.881 193.716 86.526 191.232 92.573 190.079C98.549 188.854 107.693 187.919 113.345 188.243C118.889 188.53 122.992 189.755 125.8 191.915C132.677 186.946 137.681 182.519 140.956 178.343C144.269 174.095 145.708 170.207 145.276 167.075C144.736 163.871 142.18 161.423 137.752 159.443C138.616 157.211 139.048 155.375 138.904 153.791C138.76 152.135 138.292 150.443 136.96 149.831C135.557 149.147 131.992 148.679 130.588 149.975C129.076 151.199 129.292 155.267 128.032 157.463C126.556 159.551 122.704 164.015 122.74 162.683C122.74 161.135 127.852 152.783 128.5 149.147C129.04 145.583 129.509 145.079 126.412 141.227C123.137 137.123 116.368 129.491 109.996 125.423C103.66 121.391 98.62 118.763 88.9 117.251C78.892 115.595 62.404 112.895 51.676 115.955C40.984 119.015 29.896 128.231 25.612 135.287C21.253 142.247 21.541 149.407 26.077 157.327L26.081 157.32Z" fill="#F5AABB" stroke="black" stroke-width="0.036" stroke-miterlimit="10"/>
<path id="Vector_28" fill-rule="evenodd" clip-rule="evenodd" d="M64.133 191.77C60.137 190.438 49.049 180.971 45.449 180.034C41.777 179.063 44.981 185.759 42.569 186.118C40.013 186.37 35.045 184.823 30.725 181.618C26.333 178.235 16.757 167.507 17.009 166.499C17.333 165.491 29.249 175.859 32.345 175.535C35.189 174.995 28.529 162.251 34.577 164.231C40.661 166.355 63.485 183.06 68.597 187.812C73.457 192.242 67.985 193.142 64.133 191.772V191.77Z" fill="#ECBAC4"/>
<path id="Vector_29" fill-rule="evenodd" clip-rule="evenodd" d="M80.405 131.51C83.429 129.422 94.985 127.082 101.177 127.55C107.189 128.054 112.733 131.33 116.693 134.318C120.509 137.126 123.893 140.51 124.505 144.758C125.045 148.97 120.545 155.954 120.041 159.734C119.465 163.406 124.829 162.794 121.157 166.79C117.305 170.606 99.161 183.926 97.685 183.025C96.172 182.017 111.113 165.602 112.517 161.281C113.777 156.961 105.389 160.129 105.821 157.321C106.181 154.405 115.829 147.673 114.929 144.073C113.849 140.293 105.712 136.297 100.385 135.577C95.057 134.929 86.777 140.329 83.464 139.825C80.03 139.055 77.438 133.545 80.39 131.495L80.405 131.51Z" fill="#ECBAC4"/>
<path id="Vector_30" fill-rule="evenodd" clip-rule="evenodd" d="M134.58 161.28C137.208 161.568 143.112 167.256 142.572 171C141.744 174.672 135.156 180.721 130.728 183.168C126.3 185.545 118.524 185.977 116.688 185.291C114.816 184.393 117.084 180.828 119.892 178.775C122.627 176.759 131.952 174.744 133.14 173.268C134.112 171.648 126.371 171.252 126.588 169.308C126.848 167.228 131.778 161.038 134.578 161.288L134.58 161.28Z" fill="#ECBAC4"/>
<path id="Vector_31" fill-rule="evenodd" clip-rule="evenodd" d="M55.493 144.22C51.029 146.164 35.981 154.876 37.277 154.804C38.717 154.588 60.281 144.94 63.485 143.212C66.401 141.412 59.849 142.202 55.493 144.222V144.22Z" fill="#ECBAC4"/>
<path id="Vector_32" fill-rule="evenodd" clip-rule="evenodd" d="M71.153 147.6C67.229 149.544 54.773 158.4 55.997 158.184C57.257 157.788 76.157 147.996 78.821 146.16C81.306 144.4 74.861 145.48 71.153 147.6Z" fill="#ECBAC4"/>
<path id="Vector_33" fill-rule="evenodd" clip-rule="evenodd" d="M88.722 151.81C85.877 153.682 76.049 165.382 76.734 166.066C77.526 166.462 90.738 157.462 92.898 155.05C94.733 152.53 91.493 150.01 88.722 151.81Z" fill="#ECBAC4"/>
</g>
<g id="Choco Ice Cream">
<path id="Vector_34" fill-rule="evenodd" clip-rule="evenodd" d="M62.441 143.06C57.041 139.784 51.965 137.768 47.069 137.156C42.137 136.472 37.961 140.216 33.173 139.244C28.205 138.236 23.381 136.112 18.017 131.072C12.545 125.888 0.593001 113.54 1.061 108.464C1.565 103.352 8.045 100.58 20.897 100.292C16.289 94.676 16.073 88.736 20.249 81.932C24.425 75.056 33.029 63.32 45.665 59.9C58.265 56.516 82.313 58.244 95.021 61.484C107.513 64.544 114.785 73.472 120.581 78.692C126.306 83.84 129.185 88.412 129.365 92.408C133.793 91.472 136.673 91.796 138.005 93.524C139.337 95.18 139.014 98.24 137.178 102.56C144.161 106.304 146.465 111.056 144.234 116.96C141.858 122.828 135.162 129.596 123.606 137.552C119.502 135.464 114.425 134.528 107.946 134.6C101.394 134.636 90.63 136.688 84.942 137.984C79.217 139.28 77.49 141.116 73.782 142.088C69.935 142.918 66.299 143.238 62.447 143.058L62.441 143.06Z" fill="black" stroke="black" stroke-width="0.036" stroke-miterlimit="10"/>
<path id="Vector_35" fill-rule="evenodd" clip-rule="evenodd" d="M24.101 101.56C20.825 101.02 17.765 101.164 14.489 101.992C11.069 102.784 6.353 104.476 4.769 106.384C3.221 108.076 2.465 108.76 5.561 113.152C8.693 117.652 17.513 129.1 23.129 133.06C28.565 136.876 33.713 135.688 37.997 136.156C41.993 136.516 43.721 134.536 47.897 135.472C52.181 136.264 58.697 140.872 63.413 141.52C67.913 142.024 70.829 140.476 75.365 139.252C79.865 137.956 84.51 135.472 90.557 134.32C96.569 133.096 105.605 132.16 111.292 132.484C116.8 132.772 121.013 133.996 123.784 136.156C130.732 131.188 135.664 126.76 138.976 122.584C142.215 118.336 143.692 114.448 143.26 111.316C142.684 108.112 140.236 105.664 135.772 103.684C136.6 101.524 136.96 99.652 136.852 98.068C136.707 96.412 136.276 94.72 134.98 94.108C133.576 93.352 130.047 92.92 128.572 94.216C127.06 95.44 127.276 99.508 126.016 101.704C124.539 103.792 120.688 108.256 120.724 106.924C120.724 105.376 125.835 97.024 126.484 93.388C127.131 89.824 127.42 89.32 124.432 85.468C121.228 81.364 114.244 73.732 107.944 69.664C101.608 65.632 96.568 63.004 86.848 61.492C76.911 59.836 60.352 57.136 49.66 60.196C38.983 63.21 27.895 72.534 23.611 79.554C19.399 86.502 19.435 93.702 24.115 101.554L24.101 101.56Z" fill="#A16121" stroke="black" stroke-width="0.036" stroke-miterlimit="10"/>
<path id="Vector_36" fill-rule="evenodd" clip-rule="evenodd" d="M62.117 136.01C58.121 134.642 47.033 125.282 43.433 124.31C39.761 123.374 42.965 129.926 40.553 130.358C37.997 130.61 33.029 129.062 28.709 125.858C24.317 122.474 14.741 111.746 14.993 110.738C15.317 109.73 27.233 120.098 30.329 119.774C33.173 119.234 26.513 106.49 32.561 108.47C38.645 110.594 61.469 127.298 66.581 132.05C71.441 136.47 65.969 137.37 62.117 136V136.01Z" fill="#7F4008"/>
<path id="Vector_37" fill-rule="evenodd" clip-rule="evenodd" d="M78.39 75.744C81.413 73.656 92.97 71.316 99.161 71.784C105.173 72.288 110.717 75.564 114.678 78.552C118.493 81.36 121.877 84.744 122.49 88.992C123.03 93.204 118.53 100.188 118.026 103.968C117.45 107.64 122.814 107.028 119.142 111.024C115.289 114.84 97.146 128.16 95.669 127.26C94.157 126.252 109.098 109.836 110.501 105.516C111.762 101.196 103.373 104.364 103.806 101.556C104.165 98.64 113.814 91.908 112.913 88.308C111.833 84.6 103.697 80.532 98.369 79.848C93.041 79.164 84.762 84.636 81.449 84.06C78.012 83.29 75.421 77.782 78.373 75.73L78.39 75.744Z" fill="#7F4008"/>
<path id="Vector_38" fill-rule="evenodd" clip-rule="evenodd" d="M132.57 105.52C135.198 105.844 141.102 111.46 140.562 115.276C139.734 118.876 133.146 124.96 128.717 127.408C124.289 129.784 116.514 130.216 114.678 129.532C112.841 128.632 115.001 125.068 117.846 123.016C120.617 121 129.906 118.984 131.129 117.508C132.102 115.852 124.361 115.564 124.577 113.584C124.827 111.534 129.757 105.234 132.567 105.524L132.57 105.52Z" fill="#7F4008"/>
<path id="Vector_39" fill-rule="evenodd" clip-rule="evenodd" d="M53.478 88.452C49.014 90.396 33.966 99.108 35.262 99.036C36.702 98.82 58.266 89.172 61.47 87.444C64.385 85.644 57.833 86.436 53.478 88.452Z" fill="#7F4008"/>
<path id="Vector_40" fill-rule="evenodd" clip-rule="evenodd" d="M69.137 91.836C65.141 93.816 52.721 102.528 53.945 102.42C55.277 102.06 74.141 92.232 76.805 90.432C79.289 88.668 72.845 89.784 69.137 91.836Z" fill="#7F4008"/>
</g>
<g id="Green Ice Cream">
<path id="Vector_41" fill-rule="evenodd" clip-rule="evenodd" d="M63.3574 88.0068C57.8854 84.6588 52.9534 82.6788 48.0214 82.0668C43.0894 81.5268 38.9134 85.0188 34.1254 84.1908C29.1574 83.1468 24.3334 81.0588 18.9694 75.9828C13.4974 70.7628 1.54536 58.5228 2.01336 53.4108C2.51736 48.2988 8.99736 45.5268 21.8494 45.2388C17.2774 39.6228 17.0614 33.6828 21.2014 26.8788C25.4134 19.9308 33.8734 8.37484 46.5814 4.84684C59.1814 1.49884 83.2294 3.11884 95.9374 6.39484C108.429 9.52684 115.665 18.4188 121.533 23.6388C127.258 28.8228 130.137 33.2868 130.317 37.3188C134.781 36.3468 137.553 36.7788 138.921 38.4708C140.252 40.1268 139.893 43.1868 138.128 47.5068C145.04 51.2868 147.381 55.9308 145.149 61.8708C142.809 67.7388 136.041 74.4708 124.557 82.4988C120.453 80.4108 115.376 79.4748 108.897 79.5468C102.345 79.5828 91.5814 81.6348 85.8934 82.9308C80.2054 84.2268 78.3693 86.0628 74.6973 87.0348C70.8463 87.8628 67.2104 88.1868 63.3584 88.0068H63.3574Z" fill="black" stroke="black" stroke-width="0.036" stroke-miterlimit="10"/>
<path id="Vector_42" fill-rule="evenodd" clip-rule="evenodd" d="M25.0174 46.4988C21.8494 45.9588 18.6094 46.1028 15.4414 46.9308C12.0574 47.6508 7.23335 49.3788 5.68535 51.2868C4.13735 52.9788 3.38135 53.6628 6.47735 58.0548C9.60935 62.5548 18.4294 74.0028 24.0454 77.9628C29.4814 81.7428 34.6294 80.6628 38.9134 81.0948C42.9094 81.3108 44.6374 79.5828 48.8134 80.3748C53.0974 81.2388 59.6134 85.6668 64.3294 86.4228C68.7934 87.0708 71.8174 85.3068 76.3174 84.1908C80.8534 82.8948 85.3894 80.4108 91.4734 79.2588C97.4494 78.0348 106.593 77.0988 112.244 77.4228C117.788 77.7108 121.892 78.9348 124.7 81.0948C131.648 76.1268 136.58 71.6988 139.892 67.5228C143.204 63.3108 144.644 59.3148 144.211 56.2188C143.672 53.0148 141.115 50.5308 136.688 48.6228C137.588 46.3908 137.912 44.5548 137.804 42.9708C137.696 41.3148 137.156 39.6228 135.896 39.0108C134.492 38.3268 130.928 37.8588 129.524 39.1548C127.94 40.3788 128.192 44.4468 126.932 46.6428C125.419 48.7308 121.676 53.1948 121.676 51.8628C121.676 50.3508 126.787 41.8908 127.436 38.2908C127.976 34.6548 128.444 34.2948 125.348 30.4068C122.108 26.3028 115.232 18.6708 108.896 14.6028C102.56 10.4268 97.5204 8.01484 87.8004 6.39484C77.7914 4.70284 61.3034 2.14684 50.5754 5.13484C39.9194 8.19484 28.8314 17.4108 24.5474 24.4668C20.1834 31.4148 20.4714 38.5788 25.0074 46.4988H25.0174Z" fill="#7EC871" stroke="black" stroke-width="0.036" stroke-miterlimit="10"/>
<path id="Vector_43" fill-rule="evenodd" clip-rule="evenodd" d="M63.0334 80.9508C59.0374 79.6188 47.9494 70.1508 44.3494 69.2148C40.6774 68.2428 43.8814 74.9388 41.4694 75.2988C38.8774 75.5508 34.0174 74.0388 29.6614 70.7628C25.2694 67.4508 15.7294 56.6868 15.9094 55.6788C16.1254 54.6708 28.2214 65.0388 31.2454 64.7148C34.0894 64.1748 27.4294 51.4308 33.4774 53.4108C39.5614 55.5348 62.3854 72.2388 67.4974 76.9908C72.3574 81.4188 66.8854 82.3188 63.0334 80.9508V80.9508Z" fill="#108E35"/>
<path id="Vector_44" fill-rule="evenodd" clip-rule="evenodd" d="M79.3424 20.6508C82.3654 18.5628 93.9214 16.1868 100.113 16.7268C106.161 17.2308 111.597 20.5068 115.593 23.4948C119.481 26.3028 122.792 29.6868 123.441 33.9348C123.981 38.1468 119.481 45.1308 118.977 48.9108C118.401 52.5828 123.765 51.9708 120.093 55.9668C116.168 59.7828 98.0974 73.1028 96.5844 72.2028C95.1454 71.1948 110.049 54.7788 111.452 50.4588C112.712 46.1388 104.324 49.3068 104.757 46.4988C105.116 43.6188 114.765 36.7428 113.864 33.2148C112.892 29.5068 104.576 25.4388 99.3204 24.7548C93.9564 24.0348 85.7123 29.6148 82.3643 29.0028C78.8873 28.2108 76.4034 22.7028 79.3204 20.6508H79.3424Z" fill="#108E35"/>
<path id="Vector_45" fill-rule="evenodd" clip-rule="evenodd" d="M133.486 50.4588C136.114 50.7468 142.018 56.4348 141.478 60.1788C140.722 63.8508 134.062 69.8988 129.669 72.3468C125.169 74.7588 117.466 75.0828 115.594 74.4348C113.722 73.6068 115.99 69.9708 118.797 67.9548C121.533 65.9388 130.858 63.9228 132.045 62.4468C133.09 60.8268 125.314 60.4308 125.529 58.4868C125.859 56.3988 130.649 50.2068 133.489 50.4588H133.486Z" fill="#108E35"/>
<path id="Vector_46" fill-rule="evenodd" clip-rule="evenodd" d="M54.4294 33.3588C49.9654 35.3028 34.9174 44.0148 36.2134 43.9428C37.6534 43.6908 59.2174 34.1508 62.4214 32.3868C65.3374 30.6228 58.7854 31.2708 54.4294 33.3588V33.3588Z" fill="#108E35"/>
<path id="Vector_47" fill-rule="evenodd" clip-rule="evenodd" d="M70.0534 36.7428C66.1294 38.6868 53.6734 47.5428 54.8974 47.3628C56.2294 46.9668 75.0934 37.1748 77.7574 35.3398C80.2414 33.5748 73.8334 34.6908 70.0534 36.7428Z" fill="#108E35"/>
<path id="Vector_48" fill-rule="evenodd" clip-rule="evenodd" d="M87.6574 40.9908C84.8134 42.8628 74.9853 54.5628 75.6693 55.2468C76.3173 55.6428 89.7454 46.6428 91.7964 44.2308C93.7414 41.7108 90.3214 39.1908 87.6574 40.9908Z" fill="#108E35"/>
</g>
</g>
</g>
</g>
<defs>
<clipPath id="clip0">
<rect width="147.068" height="355.482" fill="white"/>
</clipPath>
</defs>
</svg>
